<svg width="137" height="137" viewBox="0 0 137 137" fill="none" xmlns="http://www.w3.org/2000/svg">
<g style="mix-blend-mode:luminosity" opacity="0.3" clip-path="url(#clip0_81_1085)">
<path d="M1.73438 68.499C1.73438 105.373 31.6256 135.264 68.4992 135.264C105.373 135.264 135.266 105.372 135.266 68.499C135.266 31.6256 105.373 1.73425 68.4992 1.73425C31.6256 1.73425 1.73438 31.6255 1.73438 68.499Z" fill="#0C0C4F" stroke="url(#paint0_linear_81_1085)" stroke-width="4.93671"/>
<path fill-rule="evenodd" clip-rule="evenodd" d="M38.2854 52.3613L39.9763 47.1372C40.32 46.0747 41.1586 45.2479 42.225 44.9219L47.4746 43.3076C48.2012 43.0856 48.2071 42.0604 47.4864 41.8268L42.2604 40.1358C41.1998 39.7921 40.373 38.9535 40.045 37.8871L38.4326 32.6375C38.2107 31.9128 37.1856 31.9049 36.9518 32.6276L35.2609 37.8518C34.9172 38.9122 34.0786 39.7391 33.0122 40.0671L27.7626 41.6794C27.0359 41.9033 27.028 42.9266 27.7508 43.1603L32.9768 44.8512C34.0373 45.1949 34.8642 46.0354 35.1921 47.1019L36.8046 52.3495C37.0264 53.0761 38.0516 53.084 38.2854 52.3613Z" fill="#FAFAFA"/>
<path fill-rule="evenodd" clip-rule="evenodd" d="M121.261 49.3206C119.097 46.9006 115.72 45.5381 112.436 44.9793C109.126 44.4427 105.655 44.4924 102.388 45.073C95.7765 46.1913 89.7702 48.9289 84.5313 52.3061C81.8108 53.9636 79.4909 55.8814 77.0873 57.8346C75.9292 58.8224 74.8733 59.8743 73.7737 60.9112L70.7691 63.9007C67.5042 67.3133 64.2863 70.4217 61.1727 72.9981C58.0466 75.5626 55.1239 77.5103 52.2436 78.8705C49.3652 80.2377 46.2852 81.0418 42.2706 81.1705C38.2914 81.3108 33.5835 80.5926 28.5476 79.4072C23.4847 78.227 18.168 76.5448 12.2268 75.0973C14.2998 80.8483 17.4215 85.9306 21.4295 90.5767C25.4844 95.1419 30.5478 99.3022 37.0524 102.039C43.4631 104.836 51.5192 105.84 59.0519 104.325C66.6046 102.871 73.2325 99.3768 78.5899 95.3344C83.961 91.2513 88.3065 86.6001 91.97 81.7645C92.981 80.4285 93.516 79.6808 94.2478 78.6366L96.2708 75.6403C97.6763 73.787 98.9561 71.6769 100.347 69.8406C103.075 65.9949 105.765 62.1536 108.889 58.6147C110.462 56.8197 112.121 55.1028 114.079 53.4528C115.055 52.6475 116.111 51.8593 117.279 51.1493C118.466 50.3835 119.719 49.7841 121.261 49.3206Z" fill="url(#paint1_linear_81_1085)"/>
<path fill-rule="evenodd" clip-rule="evenodd" d="M121.261 49.3205C118.936 43.4538 114.614 38.5154 108.812 34.8713C103.046 31.2671 95.0378 29.4279 87.1013 30.9957C83.1809 31.754 79.3826 33.2138 76.0493 35.1578C72.7311 37.0941 69.7577 39.4251 67.1836 41.9256C65.8985 43.1802 64.7321 44.4888 63.5734 45.8048L60.5699 49.634L55.9311 55.798C50.0173 63.7288 43.649 73.0231 33.1981 75.777C22.9385 78.4807 18.4887 76.0862 12.2268 75.0971C13.3718 78.0531 14.79 80.9238 16.7127 83.4492C18.5996 86.0258 20.8283 88.4455 23.5992 90.5204C24.9995 91.5167 26.4778 92.5 28.1198 93.3341C29.7543 94.1396 31.5169 94.8489 33.3983 95.3822C37.1407 96.4079 41.354 96.7678 45.4333 96.2154C49.5146 95.6709 53.4157 94.3781 56.8256 92.6604C60.2607 90.9583 63.253 88.8859 65.9249 86.6992C71.2363 82.2884 75.3676 77.4148 78.8574 72.4884C80.6127 70.0254 82.2061 67.5159 83.6797 65.0056L85.4141 62.0171C85.9443 61.1435 86.4806 60.2646 87.025 59.446C89.2231 56.1572 91.3726 53.5201 93.9834 51.5407C96.5578 49.5102 100.143 48.0099 104.934 47.6614C109.705 47.3087 115.212 47.9602 121.261 49.3205Z" fill="#FAFAFA"/>
<path fill-rule="evenodd" clip-rule="evenodd" d="M95.4497 98.0651C95.4497 102.375 98.9449 105.869 103.254 105.869C107.563 105.869 111.053 102.375 111.053 98.0651C111.053 93.7566 107.563 90.2614 103.254 90.2614C98.9449 90.2614 95.4497 93.7566 95.4497 98.0651Z" fill="url(#paint2_linear_81_1085)"/>
</g>
<defs>
<linearGradient id="paint0_linear_81_1085" x1="129.63" y1="35.1172" x2="5.29662" y2="58.1877" gradientUnits="userSpaceOnUse">
<stop stop-color="#EC796B"/>
<stop offset="1" stop-color="#E175B1"/>
</linearGradient>
<linearGradient id="paint1_linear_81_1085" x1="120.678" y1="47.2622" x2="24.7125" y2="100.584" gradientUnits="userSpaceOnUse">
<stop stop-color="#EC796B"/>
<stop offset="1" stop-color="#E175B1"/>
</linearGradient>
<linearGradient id="paint2_linear_81_1085" x1="111.048" y1="92.5912" x2="95.4393" y2="94.2422" gradientUnits="userSpaceOnUse">
<stop stop-color="#EC796B"/>
<stop offset="1" stop-color="#E175B1"/>
</linearGradient>
<clipPath id="clip0_81_1085">
<rect width="137" height="137" fill="white"/>
</clipPath>
</defs>
</svg>
