<svg width="124" height="123" viewBox="0 0 124 123" fill="none" xmlns="http://www.w3.org/2000/svg">
<circle cx="62" cy="61.5" r="59.9852" fill="#E6E6FF" stroke="#161B32" stroke-width="3.02957"/>
<circle cx="61.9998" cy="61.5004" r="50.2906" fill="#E6E6FF" stroke="url(#paint0_linear_75_610)" stroke-width="3.02957"/>
<circle cx="62" cy="61.5" r="56.6527" stroke="#161B32" stroke-width="9.69462" stroke-dasharray="9.69 9.69"/>
<path fill-rule="evenodd" clip-rule="evenodd" d="M54.9928 35.1832L54.8693 37.9137L57.864 39.7592L59.2592 35.376C58.3903 35.2077 56.5687 35.0721 54.9928 35.1832ZM53.5725 47.396L44.3938 41.2632C44.3938 41.2632 45.3698 40.4128 46.9288 39.7087C48.4878 39.0046 50.0283 38.7186 50.0283 38.7186L53.5725 47.396ZM46.8158 49.251L64.4904 57.971L58.6742 48.7013L66.8533 49.6516L64.0737 42.251C75.8359 43.4049 85.0812 55.2105 85.0812 69.6039C85.0812 70.1333 85.0688 70.6593 85.044 71.1814C77.5773 74.6336 72.6953 78.7517 73.5875 81.1979C73.6464 81.3595 73.7293 81.5104 73.835 81.6508C74.8229 82.9625 75.6969 85.029 74.2169 85.7403C70.4962 87.5288 66.4339 88.5128 62.1798 88.5128C57.9255 88.5128 53.8628 87.5286 50.1418 85.74C48.6619 85.0286 49.5359 82.9622 50.5235 81.6505C50.6292 81.5102 50.7121 81.3593 50.7709 81.1978C51.6628 78.7518 46.7817 74.6339 39.3155 71.1819C39.302 70.8953 39.2921 70.6075 39.2858 70.3185C39.2808 70.0811 39.2783 69.8428 39.2783 69.6039C39.2783 61.5314 42.1865 54.2729 46.8158 49.251ZM59.1419 67.7369C59.1419 71.3952 56.1763 74.361 52.5178 74.361C48.8593 74.361 45.8936 71.3952 45.8936 67.7369C45.8936 64.0785 48.8593 61.1127 52.5178 61.1127C56.1763 61.1127 59.1419 64.0785 59.1419 67.7369ZM71.8415 74.361C75.5 74.361 78.4656 71.3952 78.4656 67.7369C78.4656 64.0785 75.5 61.1127 71.8415 61.1127C68.183 61.1127 65.2173 64.0785 65.2173 67.7369C65.2173 71.3952 68.183 74.361 71.8415 74.361ZM62.4485 74.0647L65.8 84.5792C65.8 84.5792 63.5934 85.1436 62.1795 85.1436C60.7659 85.1436 58.5593 84.5792 58.5593 84.5792L61.9108 74.0647C61.9943 73.8026 62.365 73.8026 62.4485 74.0647Z" fill="url(#paint1_linear_75_610)"/>
<defs>
<linearGradient id="paint0_linear_75_610" x1="61.9998" y1="9.69495" x2="61.9998" y2="113.306" gradientUnits="userSpaceOnUse">
<stop stop-color="#161B32"/>
<stop offset="1" stop-color="#9193AB"/>
</linearGradient>
<linearGradient id="paint1_linear_75_610" x1="62.1798" y1="61.8278" x2="62.1796" y2="103.418" gradientUnits="userSpaceOnUse">
<stop stop-color="#161B32"/>
<stop offset="1" stop-color="#161B32" stop-opacity="0"/>
</linearGradient>
</defs>
</svg>
